<svg id="Layer_1" data-name="Layer 1" xmlns="http://www.w3.org/2000/svg" width="185.81" height="106.44" viewBox="0 0 185.81 106.44"><defs><style>.cls-1{fill:#0076a8;}.cls-2{fill:#fff;}.cls-3{fill:#e75516;}.cls-4{fill:#6ba43a;}.cls-5{fill:#126636;}.cls-6{fill:#fcb315;}.cls-7{fill:#ff7a14;}.cls-8{fill:#a5cd23;}.cls-9{fill:#fdd98a;}.cls-10{fill:#8cd4e1;}</style></defs><title>Untitled-1</title><polygon class="cls-1" points="134.02 21.12 108.87 0 83.72 21.12 88.16 21.12 88.16 95.56 129.64 95.56 129.64 21.12 134.02 21.12"/><path class="cls-2" d="M113,15.39c0-.13,0-.25,0-.38a4.33,4.33,0,1,0-8.65,0,2.42,2.42,0,0,0,0,.38Z"/><path class="cls-2" d="M105.55,78.08c0-3.69-2.28-6.07-5.24-6s-5.15,2.42-5.13,6.11V91.91a.49.49,0,0,0,.44.51h9.55c.22,0,.38-.23.38-.51V78.08Z"/><rect class="cls-3" x="96.96" y="77.79" width="6.83" height="11.78" rx="0.27"/><circle class="cls-2" cx="102.32" cy="83.79" r="0.5"/><path class="cls-2" d="M122.42,78.08c0-3.69-2.28-6.07-5.23-6s-5.16,2.42-5.14,6.11V91.91a.49.49,0,0,0,.44.51H122c.22,0,.38-.23.38-.51Z"/><rect class="cls-4" x="113.83" y="77.79" width="6.83" height="11.78" rx="0.27"/><circle class="cls-2" cx="119.19" cy="83.79" r="0.5"/><path class="cls-5" d="M19.14,95.46H.24A3.63,3.63,0,0,1,0,94.19c0-2,1.79-3.78,4.25-4.35A3.53,3.53,0,0,1,4,88.47c0-2.52,2.69-4.56,6-4.56,2.93,0,5.37,1.59,5.91,3.69,2.14.7,3.63,2.3,3.63,4.17a3.85,3.85,0,0,1-1.15,2.67A5.2,5.2,0,0,1,19.14,95.46Z"/><polygon class="cls-4" points="50.34 95.49 50.34 54.92 54.77 54.92 30.4 33.58 6.08 54.99 10.36 54.99 10.36 95.49 50.34 95.49"/><polygon class="cls-4" points="71.93 65.64 50.34 65.67 50.34 95.49 83.33 95.49 83.33 75.86 71.93 65.64"/><polygon class="cls-6" points="83.33 75.86 71.93 65.64 50.34 65.67 50.34 75.86 83.33 75.86"/><path class="cls-2" d="M44.27,77.91c0-3.7-2.28-6.07-5.23-6S33.88,74.28,33.9,78V91.74a.49.49,0,0,0,.44.51h9.55c.22,0,.38-.23.38-.51Z"/><rect class="cls-7" x="35.68" y="77.62" width="6.83" height="11.78" rx="0.27"/><circle class="cls-2" cx="41.04" cy="83.61" r="0.5"/><rect class="cls-8" x="22.89" y="74.26" width="4.26" height="4.23" rx="0.47"/><rect class="cls-9" x="16.71" y="74.26" width="4.26" height="4.23" rx="0.47"/><rect class="cls-9" x="22.89" y="80.46" width="4.26" height="4.23" rx="0.47"/><rect class="cls-10" x="16.71" y="80.46" width="4.26" height="4.23" rx="0.47"/><rect class="cls-9" x="22.81" y="57.4" width="4.26" height="4.23" rx="0.47"/><rect class="cls-10" x="16.64" y="57.4" width="4.26" height="4.23" rx="0.47"/><rect class="cls-10" x="22.81" y="63.6" width="4.26" height="4.23" rx="0.47"/><rect class="cls-10" x="16.64" y="63.6" width="4.26" height="4.23" rx="0.47"/><rect class="cls-10" x="39.79" y="57.4" width="4.26" height="4.23" rx="0.47"/><rect class="cls-6" x="33.62" y="57.4" width="4.26" height="4.23" rx="0.47"/><rect class="cls-6" x="39.79" y="63.6" width="4.26" height="4.23" rx="0.47"/><rect class="cls-10" x="33.62" y="63.6" width="4.26" height="4.23" rx="0.47"/><path class="cls-2" d="M34.65,50.45c0-.12,0-.25,0-.37a4.33,4.33,0,1,0-8.65,0c0,.12,0,.25,0,.37Z"/><rect class="cls-2" x="52.84" y="79.1" width="24.09" height="16.41"/><path class="cls-10" d="M58.64,81.58h-2.7a.79.79,0,1,0,0,1.56h2.7a.79.79,0,1,0,0-1.56Z"/><path class="cls-10" d="M66.26,81.58h-2.7a.79.79,0,1,0,0,1.56h2.7a.79.79,0,1,0,0-1.56Z"/><path class="cls-10" d="M73.88,81.58h-2.7a.79.79,0,1,0,0,1.56h2.7a.79.79,0,1,0,0-1.56Z"/><rect class="cls-6" x="101.4" y="57.14" width="4.26" height="4.23" rx="0.47"/><rect class="cls-8" x="95.23" y="57.14" width="4.26" height="4.23" rx="0.47"/><rect class="cls-10" x="101.4" y="63.34" width="4.26" height="4.23" rx="0.47"/><rect class="cls-6" x="95.23" y="63.34" width="4.26" height="4.23" rx="0.47"/><rect class="cls-10" x="118.21" y="57.14" width="4.26" height="4.23" rx="0.47"/><rect class="cls-10" x="112.04" y="57.14" width="4.26" height="4.23" rx="0.47"/><rect class="cls-8" x="118.21" y="63.34" width="4.26" height="4.23" rx="0.47"/><rect class="cls-10" x="112.04" y="63.34" width="4.26" height="4.23" rx="0.47"/><rect class="cls-8" x="101.4" y="40.37" width="4.26" height="4.23" rx="0.47"/><rect class="cls-10" x="95.23" y="40.37" width="4.26" height="4.23" rx="0.47"/><rect class="cls-10" x="101.4" y="46.57" width="4.26" height="4.23" rx="0.47"/><rect class="cls-9" x="95.23" y="46.57" width="4.26" height="4.23" rx="0.47"/><rect class="cls-10" x="118.21" y="40.37" width="4.26" height="4.23" rx="0.47"/><rect class="cls-9" x="112.04" y="40.37" width="4.26" height="4.23" rx="0.47"/><rect class="cls-4" x="118.21" y="46.57" width="4.26" height="4.23" rx="0.47"/><rect class="cls-10" x="112.04" y="46.57" width="4.26" height="4.23" rx="0.47"/><rect class="cls-6" x="101.4" y="23.6" width="4.26" height="4.23" rx="0.47"/><rect class="cls-10" x="95.23" y="23.6" width="4.26" height="4.23" rx="0.47"/><rect class="cls-10" x="101.4" y="29.8" width="4.26" height="4.23" rx="0.47"/><rect class="cls-10" x="95.23" y="29.8" width="4.26" height="4.23" rx="0.47"/><rect class="cls-10" x="118.21" y="23.6" width="4.26" height="4.23" rx="0.47"/><rect class="cls-6" x="112.04" y="23.6" width="4.26" height="4.23" rx="0.47"/><rect class="cls-6" x="118.21" y="29.8" width="4.26" height="4.23" rx="0.47"/><rect class="cls-10" x="112.04" y="29.8" width="4.26" height="4.23" rx="0.47"/><path class="cls-6" d="M176.07,76a.83.83,0,0,0,.8-.93V73.56h1.54a.81.81,0,1,0,0-1.61h-1.54V70.41a.81.81,0,1,0-1.6,0V72h-1.54a.81.81,0,1,0,0,1.61h1.54V75.1a.83.83,0,0,0,.8.93Z"/><path class="cls-6" d="M184.88,73.56a.81.81,0,1,0,0-1.61h-3a.81.81,0,1,0,0,1.61Z"/><path class="cls-6" d="M176.07,89.12a.83.83,0,0,0,.8-.93V86.65h1.54a.81.81,0,1,0,0-1.61h-1.54V83.5a.81.81,0,1,0-1.6,0V85h-1.54a.81.81,0,1,0,0,1.61h1.54v1.54a.83.83,0,0,0,.8.93Z"/><path class="cls-6" d="M184.88,86.65a.81.81,0,1,0,0-1.61h-3a.81.81,0,1,0,0,1.61Z"/><path class="cls-6" d="M163,80.1a.81.81,0,1,0,0-1.6h-3a.81.81,0,1,0,0,1.6Z"/><path class="cls-6" d="M168.76,82.57a.83.83,0,0,0,.8-.93V80.1h1.54a.81.81,0,1,0,0-1.6h-1.54V77a.81.81,0,1,0-1.6,0V78.5h-1.54a.81.81,0,1,0,0,1.6H168v1.54a.83.83,0,0,0,.8.93Z"/><path class="cls-2" d="M157.15,105.44a6.71,6.71,0,0,1-5.7-3.29c-4.85,0-11.78.07-18.37.07-2.65,0-5.24,0-7.6,0a6.64,6.64,0,0,1-11.74-.67l-.22-.07a8.71,8.71,0,0,0-1.31-.37c-.31,0-.64,0-.94,0a7.17,7.17,0,0,1-2.92-.42,3.2,3.2,0,0,1-1.41-2.57A15.08,15.08,0,0,1,107,95l0-.1a3,3,0,0,1,1.31-1.59l.06-.11c.64-1.39,1.45-3.11,3.29-3.67,3.6-1.69,16.45-2.2,18.53-2.27A61.75,61.75,0,0,1,140.71,82l.78-.28L143,84.32l-1,.45a41.62,41.62,0,0,0-5,2.63,1.52,1.52,0,0,1,.81,1.53c0,.29,0,.58-.07.83l.39,0c1.57-.11,3.18-.18,4.66-.25,1.85-.08,4.09-.18,4.94-.35,0-.22,0-.45.07-.67a2.33,2.33,0,0,1,.53-1.64,1.68,1.68,0,0,1,1.2-.45,3.26,3.26,0,0,1,1.14.23c.54.17.81.62.88,1.57l.45-.34c.22-.17.42-.31.58-.41l.24-.15h.29a55.29,55.29,0,0,1,8.12,1c5.62,1,6.1,1.74,6.33,2.07l0,.05,0,.06a9.54,9.54,0,0,1,.93,4.17l1,.53.05.53a14.55,14.55,0,0,1-.26,3.85c-.29.9-1.27,1.87-6.2,2.25a6.59,6.59,0,0,1-5.93,3.65Z"/><path class="cls-2" d="M141.05,82.92l.56.94A39.15,39.15,0,0,0,134.3,88c1.87.11,2.61.11,2.52.86a6.54,6.54,0,0,1-.29,1.77h0c.06,0,.06.14.88.14l.78,0c4.76-.34,9.89-.31,10.36-.87.38-.93.11-2,.48-2.33a.72.72,0,0,1,.5-.16,2.53,2.53,0,0,1,.81.17c.34.1.17,2.33.17,2.33a11.63,11.63,0,0,0,2.59-1.6c3.64,0,13,1.7,13.64,2.64a9,9,0,0,1,.81,4.3l1,.56a14,14,0,0,1-.21,3.45c-.37,1.14-4,1.48-5.92,1.6a5.64,5.64,0,0,1-5.26,3.61h0a5.68,5.68,0,0,1-5.1-3.3c-4.36,0-11.83.08-18.93.08-2.89,0-5.71,0-8.24,0a5.65,5.65,0,0,1-5.09,3.22h0a5.67,5.67,0,0,1-5.27-3.7,12.82,12.82,0,0,0-2.27-.63l-.94,0a6.25,6.25,0,0,1-2.47-.32,2.24,2.24,0,0,1-.86-1.79,14.35,14.35,0,0,1,0-2.89c.1-.46,1.13-1.11,1.13-1.11.66-1.4,1.31-3.08,2.91-3.53,3-1.47,15-2.14,18.49-2.21a61.61,61.61,0,0,1,10.57-5.35m.87-2.45-1.56.58a63.29,63.29,0,0,0-10.49,5.24c-2.77.09-14.8.62-18.59,2.32-2.16.69-3.1,2.6-3.78,4.06a3.53,3.53,0,0,0-1.5,2l0,.1v.1a16.09,16.09,0,0,0,0,3.33,4.25,4.25,0,0,0,1.78,3.24l.09.06.09,0a7.71,7.71,0,0,0,3.36.53l.9,0a8.52,8.52,0,0,1,.86.25,7.63,7.63,0,0,0,13,.85c2.23,0,4.64,0,7.11,0,6.61,0,13.6,0,17.79-.07a7.64,7.64,0,0,0,12.83-.41c4.12-.37,6-1.21,6.54-2.89a15.56,15.56,0,0,0,.29-4.24l-.09-1.06-.92-.51a10.26,10.26,0,0,0-1-4l-.05-.11-.08-.11c-.39-.57-.94-1.35-7-2.49a56,56,0,0,0-8.29-1h-.58l-.43.27a2,2,0,0,0-1.11-.89,4.5,4.5,0,0,0-1.47-.28,2.61,2.61,0,0,0-1.9.74,3.1,3.1,0,0,0-.82,2.13c-1,.1-2.66.18-4.06.24-1.23.06-2.59.12-3.94.2a2.43,2.43,0,0,0-.25-1.06,42.49,42.49,0,0,1,3.84-1.94l2.07-.91-1.15-1.94-.56-.94-.85-1.43Z"/><path class="cls-3" d="M109.08,94c.66-1.4,1.31-3.08,2.91-3.53,3-1.47,15-2.14,18.49-2.21a61.61,61.61,0,0,1,10.57-5.35l.56.94A39.15,39.15,0,0,0,134.3,88c1.87.11,2.61.11,2.52.86a6.54,6.54,0,0,1-.29,1.77c.09,0,0,.21,1.67.1,4.76-.34,9.89-.31,10.36-.87.38-.93.11-2,.48-2.33s1.31,0,1.31,0c.34.1.17,2.33.17,2.33a11.63,11.63,0,0,0,2.59-1.6c3.64,0,13,1.7,13.64,2.64a9,9,0,0,1,.81,4.3l1,.56a14,14,0,0,1-.21,3.45c-.47,1.46-6.34,1.62-7,1.67-2.5.14-5.51.21-5.51.21s-35.73.34-40.39-.16c-.87-.09-2.58-.85-3.26-.86a7.9,7.9,0,0,1-3.41-.29,2.24,2.24,0,0,1-.86-1.79,14.35,14.35,0,0,1,0-2.89C108.05,94.66,109.08,94,109.08,94Z"/><circle class="cls-3" cx="157.19" cy="98.78" r="5.66"/><circle class="cls-2" cx="157.19" cy="98.78" r="3.98"/><path class="cls-3" d="M155.59,98l3.22,0a.85.85,0,0,1,.93.8.84.84,0,0,1-.94.79l-3.22,0a.81.81,0,1,1,0-1.59Z"/><circle class="cls-3" cx="119.78" cy="98.76" r="5.66"/><circle class="cls-2" cx="119.78" cy="98.76" r="3.98"/><path class="cls-3" d="M117.3,97.94H119V96.26a.82.82,0,0,1,.8-.93.84.84,0,0,1,.79.94V98h1.7a.81.81,0,1,1,0,1.6h-1.7v1.7a.81.81,0,1,1-1.6,0l0-1.7h-1.7c-.57,0-.94-.35-.93-.81A.84.84,0,0,1,117.3,97.94Z"/></svg>