<svg id="Layer_1" data-name="Layer 1" xmlns="http://www.w3.org/2000/svg" width="261.75" height="63.55" viewBox="0 0 261.75 63.55"><defs><style>.cls-1,.cls-2,.cls-3{fill:none;stroke:#0f588a;stroke-miterlimit:10;}.cls-1,.cls-2{stroke-linecap:round;}.cls-1{stroke-width:0.22px;}.cls-2{stroke-width:1.45px;}.cls-3{stroke-width:0.54px;}.cls-4{fill:#fcb315;}.cls-5{fill:#fff;}.cls-6{fill:#0076a8;}.cls-7{fill:#bccdd7;}.cls-8{fill:#bd9a5f;}.cls-9{fill:#8cd4e1;}.cls-10{fill:#e75516;}</style></defs><title>Untitled-1</title><path class="cls-1" d="M206,24.85c0,.72,4.92,3.9,4.92,4.58S206,33.29,206,34s4.92,3.91,4.92,4.59S206,42.41,206,43.18s4.92,3.86,4.92,4.58S206,51.7,206,52.34"/><path class="cls-1" d="M210.56,52.34c0-.76,4.92-3.86,4.92-4.58s-4.92-3.82-4.92-4.58,4.92-3.82,4.92-4.58-4.92-3.87-4.92-4.59,4.92-3.9,4.92-4.58-4.92-3.86-4.92-4.58"/><path class="cls-1" d="M215.12,24.85c0,.72,4.92,3.9,4.92,4.58s-4.92,3.86-4.92,4.58S220,37.92,220,38.6s-4.92,3.81-4.92,4.58S220,47,220,47.76s-4.92,3.94-4.92,4.58"/><path class="cls-1" d="M219.69,52.34c0-.76,4.92-3.86,4.92-4.58s-4.92-3.82-4.92-4.58,4.92-3.82,4.92-4.58-4.92-3.87-4.92-4.59,4.92-3.9,4.92-4.58-4.92-3.86-4.92-4.58"/><path class="cls-1" d="M224.26,24.85c0,.72,4.92,3.9,4.92,4.58s-4.92,3.86-4.92,4.58,4.92,3.91,4.92,4.59-4.92,3.81-4.92,4.58,4.92,3.86,4.92,4.58-4.92,3.94-4.92,4.58"/><path class="cls-1" d="M228.82,52.34c0-.76,4.92-3.86,4.92-4.58s-4.92-3.82-4.92-4.58,4.92-3.82,4.92-4.58-4.92-3.87-4.92-4.59,4.92-3.9,4.92-4.58-4.92-3.86-4.92-4.58"/><path class="cls-1" d="M233.39,24.85c0,.72,4.92,3.9,4.92,4.58s-4.92,3.86-4.92,4.58,4.92,3.91,4.92,4.59-4.92,3.81-4.92,4.58,4.92,3.86,4.92,4.58-4.92,3.94-4.92,4.58"/><path class="cls-1" d="M238,52.34c0-.76,4.92-3.86,4.92-4.58S238,43.94,238,43.18s4.92-3.82,4.92-4.58S238,34.73,238,34s4.92-3.9,4.92-4.58S238,25.57,238,24.85"/><path class="cls-1" d="M242.52,24.85c0,.72,4.92,3.9,4.92,4.58s-4.92,3.86-4.92,4.58,4.92,3.91,4.92,4.59-4.92,3.81-4.92,4.58,4.92,3.86,4.92,4.58-4.92,3.94-4.92,4.58"/><path class="cls-1" d="M247.09,52.34c0-.76,4.92-3.86,4.92-4.58s-4.92-3.82-4.92-4.58S252,39.36,252,38.6s-4.92-3.87-4.92-4.59,4.92-3.9,4.92-4.58-4.92-3.86-4.92-4.58"/><path class="cls-1" d="M251.66,24.85c0,.72,4.92,3.9,4.92,4.58s-4.92,3.86-4.92,4.58,4.92,3.91,4.92,4.59-4.92,3.81-4.92,4.58,4.92,3.86,4.92,4.58-4.92,3.94-4.92,4.58"/><path class="cls-1" d="M256.22,52.34c0-.76,4.92-3.86,4.92-4.58s-4.92-3.82-4.92-4.58,4.92-3.82,4.92-4.58-4.92-3.87-4.92-4.59,4.92-3.9,4.92-4.58-4.92-3.86-4.92-4.58"/><path class="cls-1" d="M261.14,52.34c0-.72-4.92-3.9-4.92-4.58s4.92-3.86,4.92-4.58-4.92-3.91-4.92-4.58,4.92-3.82,4.92-4.59-4.92-3.86-4.92-4.58,4.92-3.94,4.92-4.58"/><path class="cls-1" d="M256.58,24.85c0,.76-4.92,3.86-4.92,4.58s4.92,3.82,4.92,4.58-4.92,3.82-4.92,4.59,4.92,3.86,4.92,4.58-4.92,3.9-4.92,4.58,4.92,3.86,4.92,4.58"/><path class="cls-1" d="M252,52.34c0-.72-4.92-3.9-4.92-4.58S252,43.9,252,43.18s-4.92-3.91-4.92-4.58S252,34.78,252,34s-4.92-3.86-4.92-4.58S252,25.49,252,24.85"/><path class="cls-1" d="M247.44,24.85c0,.76-4.92,3.86-4.92,4.58s4.92,3.82,4.92,4.58-4.92,3.82-4.92,4.59,4.92,3.86,4.92,4.58-4.92,3.9-4.92,4.58,4.92,3.86,4.92,4.58"/><path class="cls-1" d="M242.88,52.34c0-.72-4.92-3.9-4.92-4.58s4.92-3.86,4.92-4.58S238,39.27,238,38.6s4.92-3.82,4.92-4.59S238,30.15,238,29.43s4.92-3.94,4.92-4.58"/><path class="cls-1" d="M238.31,24.85c0,.76-4.92,3.86-4.92,4.58s4.92,3.82,4.92,4.58-4.92,3.82-4.92,4.59,4.92,3.86,4.92,4.58-4.92,3.9-4.92,4.58,4.92,3.86,4.92,4.58"/><path class="cls-1" d="M233.74,52.34c0-.72-4.92-3.9-4.92-4.58s4.92-3.86,4.92-4.58-4.92-3.91-4.92-4.58,4.92-3.82,4.92-4.59-4.92-3.86-4.92-4.58,4.92-3.94,4.92-4.58"/><path class="cls-1" d="M229.18,24.85c0,.76-4.92,3.86-4.92,4.58s4.92,3.82,4.92,4.58-4.92,3.82-4.92,4.59,4.92,3.86,4.92,4.58-4.92,3.9-4.92,4.58,4.92,3.86,4.92,4.58"/><path class="cls-1" d="M224.61,52.34c0-.72-4.92-3.9-4.92-4.58s4.92-3.86,4.92-4.58-4.92-3.91-4.92-4.58,4.92-3.82,4.92-4.59-4.92-3.86-4.92-4.58,4.92-3.94,4.92-4.58"/><path class="cls-1" d="M220,24.85c0,.76-4.92,3.86-4.92,4.58S220,33.25,220,34s-4.92,3.82-4.92,4.59S220,42.46,220,43.18s-4.92,3.9-4.92,4.58S220,51.62,220,52.34"/><path class="cls-1" d="M215.48,52.34c0-.72-4.92-3.9-4.92-4.58s4.92-3.86,4.92-4.58-4.92-3.91-4.92-4.58,4.92-3.82,4.92-4.59-4.92-3.86-4.92-4.58,4.92-3.94,4.92-4.58"/><path class="cls-1" d="M210.91,24.85c0,.76-4.92,3.86-4.92,4.58s4.92,3.82,4.92,4.58S206,37.83,206,38.6s4.92,3.86,4.92,4.58S206,47.08,206,47.76s4.92,3.86,4.92,4.58"/><line class="cls-2" x1="206.23" y1="24.52" x2="206.23" y2="52.67"/><line class="cls-2" x1="261.03" y1="24.52" x2="261.03" y2="52.67"/><line class="cls-3" x1="206.23" y1="25.44" x2="261.03" y2="25.44"/><path class="cls-1" d="M58.17,24.85c0,.72,4.92,3.9,4.92,4.58S58.17,33.29,58.17,34s4.92,3.91,4.92,4.59-4.92,3.81-4.92,4.58,4.92,3.86,4.92,4.58-4.92,3.94-4.92,4.58"/><path class="cls-1" d="M62.73,52.34c0-.76,4.92-3.86,4.92-4.58s-4.92-3.82-4.92-4.58,4.92-3.82,4.92-4.58S62.73,34.73,62.73,34s4.92-3.9,4.92-4.58-4.92-3.86-4.92-4.58"/><path class="cls-1" d="M67.3,24.85c0,.72,4.92,3.9,4.92,4.58S67.3,33.29,67.3,34s4.92,3.91,4.92,4.59-4.92,3.81-4.92,4.58,4.92,3.86,4.92,4.58S67.3,51.7,67.3,52.34"/><path class="cls-1" d="M71.87,52.34c0-.76,4.92-3.86,4.92-4.58s-4.92-3.82-4.92-4.58,4.92-3.82,4.92-4.58S71.87,34.73,71.87,34s4.92-3.9,4.92-4.58-4.92-3.86-4.92-4.58"/><path class="cls-1" d="M76.43,24.85c0,.72,4.92,3.9,4.92,4.58S76.43,33.29,76.43,34s4.92,3.91,4.92,4.59-4.92,3.81-4.92,4.58,4.92,3.86,4.92,4.58-4.92,3.94-4.92,4.58"/><path class="cls-1" d="M81,52.34c0-.76,4.92-3.86,4.92-4.58S81,43.94,81,43.18s4.92-3.82,4.92-4.58S81,34.73,81,34s4.92-3.9,4.92-4.58S81,25.57,81,24.85"/><path class="cls-1" d="M85.57,24.85c0,.72,4.92,3.9,4.92,4.58S85.57,33.29,85.57,34s4.92,3.91,4.92,4.59-4.92,3.81-4.92,4.58,4.92,3.86,4.92,4.58-4.92,3.94-4.92,4.58"/><path class="cls-1" d="M90.13,52.34c0-.76,4.92-3.86,4.92-4.58s-4.92-3.82-4.92-4.58,4.92-3.82,4.92-4.58S90.13,34.73,90.13,34s4.92-3.9,4.92-4.58-4.92-3.86-4.92-4.58"/><path class="cls-1" d="M94.7,24.85c0,.72,4.92,3.9,4.92,4.58S94.7,33.29,94.7,34s4.92,3.91,4.92,4.59-4.92,3.81-4.92,4.58,4.92,3.86,4.92,4.58S94.7,51.7,94.7,52.34"/><path class="cls-1" d="M99.27,52.34c0-.76,4.92-3.86,4.92-4.58s-4.92-3.82-4.92-4.58,4.92-3.82,4.92-4.58S99.27,34.73,99.27,34s4.92-3.9,4.92-4.58-4.92-3.86-4.92-4.58"/><path class="cls-1" d="M103.83,24.85c0,.72,4.92,3.9,4.92,4.58s-4.92,3.86-4.92,4.58,4.92,3.91,4.92,4.59-4.92,3.81-4.92,4.58,4.92,3.86,4.92,4.58-4.92,3.94-4.92,4.58"/><path class="cls-1" d="M108.4,52.34c0-.76,4.92-3.86,4.92-4.58s-4.92-3.82-4.92-4.58,4.92-3.82,4.92-4.58S108.4,34.73,108.4,34s4.92-3.9,4.92-4.58-4.92-3.86-4.92-4.58"/><path class="cls-1" d="M113.32,52.34c0-.72-4.92-3.9-4.92-4.58s4.92-3.86,4.92-4.58-4.92-3.91-4.92-4.58,4.92-3.82,4.92-4.59-4.92-3.86-4.92-4.58,4.92-3.94,4.92-4.58"/><path class="cls-1" d="M108.75,24.85c0,.76-4.92,3.86-4.92,4.58s4.92,3.82,4.92,4.58-4.92,3.82-4.92,4.59,4.92,3.86,4.92,4.58-4.92,3.9-4.92,4.58,4.92,3.86,4.92,4.58"/><path class="cls-1" d="M104.19,52.34c0-.72-4.92-3.9-4.92-4.58s4.92-3.86,4.92-4.58-4.92-3.91-4.92-4.58,4.92-3.82,4.92-4.59-4.92-3.86-4.92-4.58,4.92-3.94,4.92-4.58"/><path class="cls-1" d="M99.62,24.85c0,.76-4.92,3.86-4.92,4.58s4.92,3.82,4.92,4.58S94.7,37.83,94.7,38.6s4.92,3.86,4.92,4.58-4.92,3.9-4.92,4.58,4.92,3.86,4.92,4.58"/><path class="cls-1" d="M95.05,52.34c0-.72-4.92-3.9-4.92-4.58s4.92-3.86,4.92-4.58-4.92-3.91-4.92-4.58,4.92-3.82,4.92-4.59-4.92-3.86-4.92-4.58,4.92-3.94,4.92-4.58"/><path class="cls-1" d="M90.49,24.85c0,.76-4.92,3.86-4.92,4.58s4.92,3.82,4.92,4.58-4.92,3.82-4.92,4.59,4.92,3.86,4.92,4.58-4.92,3.9-4.92,4.58,4.92,3.86,4.92,4.58"/><path class="cls-1" d="M85.92,52.34c0-.72-4.92-3.9-4.92-4.58s4.92-3.86,4.92-4.58S81,39.27,81,38.6s4.92-3.82,4.92-4.59S81,30.15,81,29.43s4.92-3.94,4.92-4.58"/><path class="cls-1" d="M81.35,24.85c0,.76-4.92,3.86-4.92,4.58s4.92,3.82,4.92,4.58-4.92,3.82-4.92,4.59,4.92,3.86,4.92,4.58-4.92,3.9-4.92,4.58,4.92,3.86,4.92,4.58"/><path class="cls-1" d="M76.79,52.34c0-.72-4.92-3.9-4.92-4.58s4.92-3.86,4.92-4.58-4.92-3.91-4.92-4.58,4.92-3.82,4.92-4.59-4.92-3.86-4.92-4.58,4.92-3.94,4.92-4.58"/><path class="cls-1" d="M72.22,24.85c0,.76-4.92,3.86-4.92,4.58s4.92,3.82,4.92,4.58S67.3,37.83,67.3,38.6s4.92,3.86,4.92,4.58-4.92,3.9-4.92,4.58,4.92,3.86,4.92,4.58"/><path class="cls-1" d="M67.65,52.34c0-.72-4.92-3.9-4.92-4.58s4.92-3.86,4.92-4.58-4.92-3.91-4.92-4.58,4.92-3.82,4.92-4.59-4.92-3.86-4.92-4.58,4.92-3.94,4.92-4.58"/><path class="cls-1" d="M63.09,24.85c0,.76-4.92,3.86-4.92,4.58s4.92,3.82,4.92,4.58-4.92,3.82-4.92,4.59,4.92,3.86,4.92,4.58-4.92,3.9-4.92,4.58,4.92,3.86,4.92,4.58"/><line class="cls-2" x1="58.4" y1="24.52" x2="58.4" y2="52.67"/><line class="cls-2" x1="113.21" y1="24.52" x2="113.21" y2="52.67"/><line class="cls-3" x1="58.4" y1="25.44" x2="113.21" y2="25.44"/><path class="cls-4" d="M3.27,14.17a.83.83,0,0,0,.8-.93V11.7H5.61a.81.81,0,1,0,0-1.6H4.07V8.56a.83.83,0,0,0-.8-.93.83.83,0,0,0-.8.93V10.1H.93a.81.81,0,1,0,0,1.6H2.47v1.54a.84.84,0,0,0,.8.93Z"/><path class="cls-4" d="M12.08,11.7a.81.81,0,1,0,0-1.6h-3a.81.81,0,1,0,0,1.6Z"/><path class="cls-4" d="M3.27,27.26a.83.83,0,0,0,.8-.93V24.79H5.61a.81.81,0,1,0,0-1.6H4.07V21.65a.83.83,0,0,0-.8-.93.83.83,0,0,0-.8.93v1.54H.93a.81.81,0,1,0,0,1.6H2.47v1.54a.84.84,0,0,0,.8.93Z"/><path class="cls-4" d="M12.08,24.79a.81.81,0,1,0,0-1.61h-3a.81.81,0,1,0,0,1.61Z"/><path class="cls-4" d="M10.58,20.72a.84.84,0,0,0,.81-.93V18.25h1.53a.81.81,0,1,0,0-1.61H11.39V15.1a.81.81,0,1,0-1.61,0v1.54H8.24a.81.81,0,1,0,0,1.61H9.78v1.54a.84.84,0,0,0,.8.93Z"/><path class="cls-4" d="M19.39,18.25a.81.81,0,1,0,0-1.61h-3a.81.81,0,1,0,0,1.61Z"/><rect class="cls-5" x="197.71" y="49.66" width="33.71" height="9.92"/><rect class="cls-6" x="110.27" width="121.27" height="52.76"/><polygon class="cls-5" points="153.08 53.15 113.85 53.15 118.1 46.6 118.1 24.65 148.98 24.65 148.98 46.5 153.08 53.15"/><rect class="cls-7" x="155.5" y="24.65" width="30.88" height="3.52"/><rect class="cls-7" x="155.5" y="29.22" width="30.88" height="3.52"/><rect class="cls-7" x="155.5" y="33.8" width="30.88" height="3.52"/><rect class="cls-7" x="155.5" y="38.38" width="30.88" height="3.52"/><rect class="cls-7" x="155.5" y="42.95" width="30.88" height="3.52"/><rect class="cls-7" x="192.76" y="24.65" width="30.88" height="3.52"/><rect class="cls-7" x="192.76" y="29.22" width="30.88" height="3.52"/><rect class="cls-7" x="192.76" y="33.8" width="30.88" height="3.52"/><rect class="cls-7" x="192.76" y="38.38" width="30.88" height="3.52"/><rect class="cls-7" x="192.76" y="42.95" width="30.88" height="3.52"/><rect class="cls-8" x="118.05" y="39.79" width="7.55" height="6.8"/><rect class="cls-8" x="124.86" y="39.79" width="7.55" height="6.8"/><rect class="cls-8" x="134.64" y="39.79" width="7.55" height="6.8"/><rect class="cls-8" x="120.76" y="33.91" width="7.55" height="6.8"/><path class="cls-4" d="M132.5,4.13h1.78a1.06,1.06,0,0,1,1.19,1,1.07,1.07,0,0,1-1.19,1H132.5a1.06,1.06,0,0,1-1.19-1A1.05,1.05,0,0,1,132.5,4.13Z"/><path class="cls-4" d="M170.1,4.13h1.78a1.06,1.06,0,0,1,1.19,1,1.07,1.07,0,0,1-1.19,1H170.1a1.07,1.07,0,0,1-1.19-1A1.06,1.06,0,0,1,170.1,4.13Z"/><path class="cls-4" d="M207.29,4.13h1.79a1.05,1.05,0,0,1,1.18,1,1.06,1.06,0,0,1-1.18,1h-1.79a1.07,1.07,0,0,1-1.19-1A1.06,1.06,0,0,1,207.29,4.13Z"/><path class="cls-9" d="M128.38,14.14h-7.95a2,2,0,1,0,0,3.94h7.95a2,2,0,1,0,0-3.94Z"/><path class="cls-9" d="M143.88,14.14h-7.95a2,2,0,1,0,0,3.94h7.95a2,2,0,1,0,0-3.94Z"/><path class="cls-9" d="M159.38,14.14h-7.95a2,2,0,1,0,0,3.94h7.95a2,2,0,1,0,0-3.94Z"/><path class="cls-9" d="M174.88,14.14h-7.95a2,2,0,1,0,0,3.94h7.95a2,2,0,1,0,0-3.94Z"/><path class="cls-9" d="M190.38,14.14h-7.95a2,2,0,1,0,0,3.94h7.95a2,2,0,1,0,0-3.94Z"/><path class="cls-9" d="M205.88,14.14h-7.95a2,2,0,1,0,0,3.94h7.95a2,2,0,1,0,0-3.94Z"/><path class="cls-9" d="M221.38,14.14h-7.95a2.06,2.06,0,0,0-2.32,2,2.07,2.07,0,0,0,2.32,2h7.95a2,2,0,1,0,0-3.94Z"/><path class="cls-5" d="M48.86,62.55a6.67,6.67,0,0,1-6.65-6.62,4.61,4.61,0,0,1,0-.53l-11.9.07,0-3H28.6a2.84,2.84,0,0,1-2.84-2.84V19.49a2.84,2.84,0,0,1,2.84-2.84H87.22a2.84,2.84,0,0,1,2.84,2.84V47h.61l-.19-29.44,9.74,1.76,1.66,2,3.06.43c2.53.35,4.71.66,6.1,2.47a22.29,22.29,0,0,1,1.41,2.44c2.34,4.78,6.64,15,7.3,17.39.23.82.51,2.63.63,3.4a2.56,2.56,0,0,1,.85,1.56,5.44,5.44,0,0,1-1.12,4.8,4.36,4.36,0,0,1-1.87.84,9.73,9.73,0,0,0-1.12.38c-.41,1.16-.81,1.73-1.37,1.94a11.88,11.88,0,0,1-4.41.68l-7.77,0a6.65,6.65,0,0,1-12.77.1L55.18,58a6.7,6.7,0,0,1-6.27,4.54Z"/><path class="cls-5" d="M87.22,17.65a1.85,1.85,0,0,1,1.84,1.84V48l2.61,0-.18-29.23,8.19,1.48,1.68,2,3,.41c2.56.37,4.68.58,5.89,2.16a18.75,18.75,0,0,1,1.31,2.27c2.32,4.73,6.61,15,7.24,17.21.27,1,.65,3.62.65,3.62a1.93,1.93,0,0,1,.81,1.27,4.41,4.41,0,0,1-.86,3.91c-.48.49-3,.78-3.15,1.4s-.52,1.4-.84,1.52a10.69,10.69,0,0,1-4.06.62l-8.57,0a5.67,5.67,0,0,1-5.56,4.85h0a5.65,5.65,0,0,1-5.57-4.75L54.41,57a5.66,5.66,0,0,1-5.51,4.54h0a5.66,5.66,0,0,1-5.65-5.62,5.56,5.56,0,0,1,.21-1.54l-12.09.07,0-3H28.6a1.85,1.85,0,0,1-1.84-1.84V19.49a1.85,1.85,0,0,1,1.84-1.84H87.22m0-2H28.6a3.84,3.84,0,0,0-3.84,3.84v30.1a3.84,3.84,0,0,0,3.84,3.84h.72v3l2,0,9.89-.06A7.65,7.65,0,0,0,55.86,59l34.24-.21a7.62,7.62,0,0,0,7.07,4.74,7.73,7.73,0,0,0,7.12-4.85l7,0a12.79,12.79,0,0,0,4.76-.75,3.31,3.31,0,0,0,1.8-2.1l.62-.19a5.25,5.25,0,0,0,2.3-1.09,6.36,6.36,0,0,0,1.39-5.7,3.55,3.55,0,0,0-.89-1.85c-.14-.89-.39-2.42-.6-3.19a188.58,188.58,0,0,0-7.38-17.56,19,19,0,0,0-1.51-2.6c-1.63-2.14-4.12-2.49-6.75-2.86l-.45-.07-2.22-.3L101.22,19l-.46-.56-.72-.13-8.19-1.49-2.37-.43v0a3.8,3.8,0,0,0-2.26-.74Z"/><path class="cls-10" d="M120.25,49.21a1.93,1.93,0,0,0-.81-1.27s-.38-2.64-.65-3.62c-.63-2.25-4.92-12.48-7.24-17.21a18.75,18.75,0,0,0-1.31-2.27c-1.21-1.58-3.33-1.79-5.89-2.16l-3-.41-1.68-2-8.19-1.48L91.67,48l-2.61,0V19.49a1.85,1.85,0,0,0-1.84-1.84H28.6a1.85,1.85,0,0,0-1.84,1.84v30.1a1.85,1.85,0,0,0,1.84,1.84h2.71l0,3,21.38-.13V57l39-.24h0l3.92,0v0c5.72,0,15.69-.06,15.69-.06A10.69,10.69,0,0,0,115.4,56c.32-.12.63-.88.84-1.52s2.67-.91,3.15-1.4A4.41,4.41,0,0,0,120.25,49.21Z"/><path class="cls-5" d="M117.5,48.31c1-.26.09-5.29-1.17-5.79-.48-.2-2.26-.36-2.18.69.47,3.31.71,4.67,1.39,5.11S116.66,48.53,117.5,48.31Z"/><rect class="cls-5" x="95.72" y="41.81" width="4.67" height="1.51" rx="0.54" transform="translate(-0.26 0.61) rotate(-0.36)"/><path class="cls-5" d="M104,36a3.59,3.59,0,0,0-3.61-3.57l-3.76,0A5,5,0,0,0,98.5,35.7c.86.85,3,1.7,5.49,2.39Z"/><path class="cls-5" d="M109.59,27.9c-.73-1.27-1.27-2.2-2.66-2.63-1.63-.5-10.78-.27-10.78-.27a51.64,51.64,0,0,0,.17,5.66l4,0a5.37,5.37,0,0,1,5.4,5.33v2.58c3.94.94,8,1.39,8.68.76S109.59,27.9,109.59,27.9Z"/><path class="cls-5" d="M56.22,52.82l33.57,0a.54.54,0,0,0,.53-.55v-.42a.54.54,0,0,0-.54-.54l-33.57,0a.55.55,0,0,0-.54.55v.42A.54.54,0,0,0,56.22,52.82Z"/><circle class="cls-10" cx="48.87" cy="55.89" r="5.66"/><circle class="cls-5" cx="48.87" cy="55.89" r="3.98"/><path class="cls-10" d="M50.46,55.08l-3.21,0a.81.81,0,1,0,0,1.6l3.21,0a.81.81,0,1,0,0-1.6Z"/><circle class="cls-10" cx="97.17" cy="55.87" r="5.66"/><circle class="cls-5" cx="97.17" cy="55.87" r="3.98"/><path class="cls-10" d="M99.66,55.05l-1.7,0v-1.7a.81.81,0,1,0-1.59,0v1.7h-1.7a.81.81,0,1,0,0,1.59h1.7v1.7a.81.81,0,1,0,1.59,0v-1.7h1.7a.81.81,0,1,0,0-1.6Z"/></svg>