<svg id="Layer_1" data-name="Layer 1" xmlns="http://www.w3.org/2000/svg" width="228.11" height="90.45" viewBox="0 0 228.11 90.45"><defs><style>.cls-1{fill:#0076a8;}.cls-2{fill:#fff;}.cls-3{fill:#8cd4e1;}.cls-4{fill:#a5cd23;}.cls-5{fill:#fdd98a;}.cls-6{fill:#fcb315;}.cls-7{fill:#e75516;}</style></defs><title>Untitled-1</title><polygon class="cls-1" points="95.33 47.5 95.33 0 49.23 0 49.23 79.47 133.55 79.47 133.55 47.5 95.33 47.5"/><path class="cls-2" d="M60.3,9.33a1.91,1.91,0,0,1-1.24.41A2,2,0,0,1,57,7.56v0a2.28,2.28,0,0,1,2.33-2.37A2.13,2.13,0,0,1,61,5.81a3.42,3.42,0,0,1,.79,2.61v.05c0,2.37-1,3.71-2.71,3.71a3,3,0,0,1-1.92-.7l.68-1.11a2,2,0,0,0,1.26.52C59.91,10.89,60.25,10.09,60.3,9.33Zm0-1.83v0a1,1,0,0,0-1-1.09,1,1,0,0,0-1,1.08v0a1,1,0,1,0,2,0Z"/><path class="cls-2" d="M62.51,10.93l2-2.06c.72-.74,1-1.1,1-1.6a.76.76,0,0,0-.82-.8c-.47,0-.8.27-1.24.8l-.91-.86a2.65,2.65,0,0,1,2.26-1.23,1.94,1.94,0,0,1,2.13,2v0c0,.94-.43,1.49-1.44,2.47L64.34,10.8h2.58v1.26H62.51Z"/><path class="cls-2" d="M67.68,11.31l.79-1a2,2,0,0,0,1.35.61,1,1,0,0,0,1-1h0a1,1,0,0,0-1.1-1,2.49,2.49,0,0,0-.93.21l-.78-.51.19-3.33H72V6.54H69.41l-.08,1.23a2.62,2.62,0,0,1,.75-.1,2,2,0,0,1,2.15,2.14v0a2.22,2.22,0,0,1-2.38,2.34A3.06,3.06,0,0,1,67.68,11.31Z"/><path class="cls-2" d="M75.58,5.28H77v6.78H75.58Z"/><path class="cls-2" d="M78.27,6.87h1.37v.69A1.6,1.6,0,0,1,81,6.77c1,0,1.53.68,1.53,1.75v3.54H81.13V8.93c0-.61-.27-.92-.73-.92s-.76.31-.76.92v3.13H78.27Z"/><path class="cls-2" d="M83.37,9.54V9.42a2.44,2.44,0,0,1,2.41-2.65,2.2,2.2,0,0,1,1.69.7l-.74,1A1.24,1.24,0,0,0,85.8,8c-.63,0-1.06.6-1.06,1.44v0c0,.86.4,1.46,1.09,1.46a1.27,1.27,0,0,0,.94-.47l.72.91a2.19,2.19,0,0,1-1.76.8A2.42,2.42,0,0,1,83.37,9.54Z"/><path class="cls-2" d="M70.17,79.55V64.26a.35.35,0,0,0-.34-.35h-8a.35.35,0,0,0-.35.35V79.55Z"/><path class="cls-2" d="M81.59,79.55V64.26a.35.35,0,0,0-.35-.35h-8a.35.35,0,0,0-.35.35V79.55Z"/><path class="cls-3" d="M60.28,18.14H57.49a1.59,1.59,0,1,0,0,3.15h2.79a1.6,1.6,0,1,0,0-3.15Z"/><path class="cls-4" d="M71.6,18.14H68.81a1.6,1.6,0,1,0,0,3.15H71.6a1.6,1.6,0,1,0,0-3.15Z"/><path class="cls-4" d="M60.28,26.86H57.49a1.59,1.59,0,1,0,0,3.15h2.79a1.6,1.6,0,1,0,0-3.15Z"/><path class="cls-4" d="M71.6,26.86H68.81a1.6,1.6,0,1,0,0,3.15H71.6a1.6,1.6,0,1,0,0-3.15Z"/><path class="cls-3" d="M60.28,35.53H57.49a1.59,1.59,0,1,0,0,3.15h2.79a1.6,1.6,0,1,0,0-3.15Z"/><path class="cls-5" d="M71.6,35.53H68.81a1.6,1.6,0,1,0,0,3.15H71.6a1.6,1.6,0,1,0,0-3.15Z"/><path class="cls-4" d="M60.28,44.37H57.49a1.59,1.59,0,1,0,0,3.15h2.79a1.6,1.6,0,1,0,0-3.15Z"/><path class="cls-5" d="M71.6,44.37H68.81a1.6,1.6,0,1,0,0,3.15H71.6a1.6,1.6,0,1,0,0-3.15Z"/><path class="cls-4" d="M94.19,53.21h-14a1.6,1.6,0,1,0,0,3.15h14a1.6,1.6,0,1,0,0-3.15Z"/><path class="cls-5" d="M94.19,61.72H89.56a1.6,1.6,0,1,0,0,3.16h4.63a1.6,1.6,0,1,0,0-3.16Z"/><path class="cls-6" d="M109.6,53.21H102a1.6,1.6,0,1,0,0,3.15h7.64a1.59,1.59,0,1,0,0-3.15Z"/><path class="cls-4" d="M125.13,53.21h-7.64a1.6,1.6,0,1,0,0,3.15h7.64a1.59,1.59,0,1,0,0-3.15Z"/><path class="cls-3" d="M109.6,61.69H102a1.6,1.6,0,1,0,0,3.15h7.64a1.59,1.59,0,1,0,0-3.15Z"/><path class="cls-6" d="M125.13,61.69h-7.64a1.6,1.6,0,1,0,0,3.15h7.64a1.59,1.59,0,1,0,0-3.15Z"/><path class="cls-5" d="M94.19,70.49H89.56a1.6,1.6,0,1,0,0,3.15h4.63a1.6,1.6,0,1,0,0-3.15Z"/><path class="cls-3" d="M109.6,70.51H102a1.6,1.6,0,1,0,0,3.15h7.64a1.59,1.59,0,1,0,0-3.15Z"/><path class="cls-3" d="M125.13,70.51h-7.64a1.6,1.6,0,1,0,0,3.15h7.64a1.59,1.59,0,1,0,0-3.15Z"/><path class="cls-4" d="M60.28,53.21H57.49a1.59,1.59,0,1,0,0,3.15h2.79a1.6,1.6,0,1,0,0-3.15Z"/><path class="cls-6" d="M71.6,53.21H68.81a1.6,1.6,0,1,0,0,3.15H71.6a1.6,1.6,0,1,0,0-3.15Z"/><path class="cls-6" d="M95.32,18.14H80.16a1.6,1.6,0,1,0,0,3.15H95.32Z"/><path class="cls-6" d="M95.32,26.84H80.16a1.6,1.6,0,1,0,0,3.15H95.32Z"/><path class="cls-5" d="M95.32,35.55H80.16a1.6,1.6,0,1,0,0,3.15H95.32Z"/><path class="cls-4" d="M95.32,44.35H80.16a1.6,1.6,0,1,0,0,3.15H95.32Z"/><path class="cls-1" d="M196.23,25.37a15.48,15.48,0,0,0-25.48,0H158.42V79.44h50.22V25.37Z"/><path class="cls-2" d="M170.47,79.48V65.71a.31.31,0,0,0-.31-.31H163a.31.31,0,0,0-.31.31V79.48Z"/><path class="cls-2" d="M180.75,79.48V65.71a.31.31,0,0,0-.31-.31h-7.22a.31.31,0,0,0-.31.31V79.48Z"/><path class="cls-2" d="M194.11,79.48V65.71a.31.31,0,0,0-.31-.31h-7.22a.31.31,0,0,0-.31.31V79.48Z"/><path class="cls-2" d="M204.38,79.48V65.71a.31.31,0,0,0-.31-.31h-7.21a.31.31,0,0,0-.31.31V79.48Z"/><rect class="cls-1" x="138.94" y="33.49" width="19.48" height="45.96"/><path class="cls-2" d="M191.82,34.52l.43-4.35a1.09,1.09,0,0,0-1.09-1.09H178.52a1.72,1.72,0,0,0-.24,0c-.25-1.12-.41-1.87-.41-1.87a.86.86,0,0,0-.85-.73H175.5a.86.86,0,1,0,0,1.71h.83l2.47,11.32h0a1.41,1.41,0,0,0,.28.59,1.21,1.21,0,0,0-.28.79,1.28,1.28,0,1,0,2.43-.52h7.15a1.27,1.27,0,1,0,2.32,0h.07a.86.86,0,1,0,0-1.72H180.38L180,37.12l10.7-1.51A1.16,1.16,0,0,0,191.82,34.52Z"/><rect class="cls-1" x="208.64" y="33.49" width="19.48" height="45.96"/><path class="cls-3" d="M169.37,55.6H163a1.6,1.6,0,1,0,0,3.15h6.36a1.6,1.6,0,1,0,0-3.15Z"/><path class="cls-4" d="M186.72,55.6h-6.37a1.59,1.59,0,1,0,0,3.15h6.37a1.59,1.59,0,1,0,0-3.15Z"/><path class="cls-5" d="M204,55.6h-6.36a1.6,1.6,0,1,0,0,3.15H204a1.6,1.6,0,1,0,0-3.15Z"/><path class="cls-4" d="M163,47h2.79a1.59,1.59,0,1,1,0,3.15H163A1.6,1.6,0,1,1,163,47Z"/><path class="cls-3" d="M172.58,47h2.79a1.59,1.59,0,1,1,0,3.15h-2.79a1.6,1.6,0,1,1,0-3.15Z"/><path class="cls-4" d="M182.13,47h2.79a1.59,1.59,0,1,1,0,3.15h-2.79a1.6,1.6,0,1,1,0-3.15Z"/><path class="cls-3" d="M191.68,47h2.79a1.59,1.59,0,1,1,0,3.15h-2.79a1.6,1.6,0,1,1,0-3.15Z"/><path class="cls-5" d="M201.23,47H204a1.59,1.59,0,1,1,0,3.15h-2.79a1.6,1.6,0,1,1,0-3.15Z"/><path class="cls-3" d="M153.29,47H138.94v3.15h14.35a1.6,1.6,0,1,0,0-3.15Z"/><path class="cls-4" d="M153.29,55.56H138.94v3.16h14.35a1.6,1.6,0,1,0,0-3.16Z"/><path class="cls-6" d="M213.76,47h14.35v3.15H213.76a1.59,1.59,0,1,1,0-3.15Z"/><path class="cls-5" d="M213.76,55.56h14.35v3.16H213.76a1.6,1.6,0,1,1,0-3.16Z"/><path class="cls-6" d="M3.27,59.71a.83.83,0,0,0,.8-.93V57.24H5.61a.81.81,0,1,0,0-1.61H4.07V54.09a.83.83,0,0,0-.8-.93.84.84,0,0,0-.8.93v1.54H.93a.81.81,0,1,0,0,1.61H2.47v1.54a.84.84,0,0,0,.8.93Z"/><path class="cls-6" d="M12.08,57.24a.81.81,0,1,0,0-1.61h-3a.81.81,0,1,0,0,1.61Z"/><path class="cls-6" d="M3.27,72.8a.83.83,0,0,0,.8-.93V70.33H5.61a.81.81,0,1,0,0-1.61H4.07V67.18a.83.83,0,0,0-.8-.93.84.84,0,0,0-.8.93v1.54H.93a.81.81,0,1,0,0,1.61H2.47v1.54a.84.84,0,0,0,.8.93Z"/><path class="cls-6" d="M12.08,70.33a.81.81,0,1,0,0-1.61h-3a.81.81,0,1,0,0,1.61Z"/><path class="cls-6" d="M10.58,66.25a.84.84,0,0,0,.81-.93V63.78h1.53a.81.81,0,1,0,0-1.6H11.39V60.64a.81.81,0,1,0-1.61,0v1.54H8.24a.81.81,0,1,0,0,1.6H9.78v1.54a.83.83,0,0,0,.8.93Z"/><path class="cls-6" d="M19.39,63.78a.81.81,0,1,0,0-1.6h-3a.81.81,0,1,0,0,1.6Z"/><path class="cls-2" d="M31.32,89.45a6.66,6.66,0,0,1-6.05-3.88l-1-.06a13.43,13.43,0,0,1-2.82-.8l-.13-.06-.11-.09c-1.68-1.33-1.34-5.63-1.2-6.42a4,4,0,0,1,1.31-2.48c0-.35-.07-.91-.09-1.27s-.05-.57-.06-.74a3.52,3.52,0,0,1,1.2-3.44,4.74,4.74,0,0,1,.9-.43c.87-.84,1.8-1.76,2.24-2.22l-.06-.08A1.63,1.63,0,0,1,25.22,66a1.11,1.11,0,0,1,.82-.71,80.39,80.39,0,0,1,8.2-1.3c5-.41,9.18-.61,12.34-.61,5.31,0,7,.57,8.08.95.17.06.32.12.47.16A119.71,119.71,0,0,1,67.92,70l.33.13a6.7,6.7,0,0,0,1.12.38c6.71,1.46,8.83,3,9.43,4.13a2.54,2.54,0,0,0,.15.21c.2.3.52.74.8,1.23l.21.23a6.64,6.64,0,0,1,1.38,1.85,5,5,0,0,1,0,2.5,8.53,8.53,0,0,0-.14,1.2,8.85,8.85,0,0,0,.1,1.59l0,.09v0a1.91,1.91,0,0,1-1.4,2.12,11.16,11.16,0,0,1-3,.43l-2.49,0a6.65,6.65,0,0,1-11.36.14l-26-.14a6.71,6.71,0,0,1-5.69,3.29Z"/><path class="cls-2" d="M46.58,64.37c6.07,0,7.15.75,8.28,1.07A120.44,120.44,0,0,1,67.51,70.9a11.19,11.19,0,0,0,1.61.57c7.27,1.59,8.56,3.21,8.8,3.64.08.16.56.77,1,1.49a12.55,12.55,0,0,1,1.51,1.91c.29.77-.23,2.33-.22,3.35a7.71,7.71,0,0,0,.14,1.85.91.91,0,0,1-.73,1,9.31,9.31,0,0,1-2.71.39l-3,0a5.64,5.64,0,0,1-5.08,3.25h0a5.65,5.65,0,0,1-5-3.12l-27.22-.14a5.66,5.66,0,0,1-5.1,3.29h0A5.66,5.66,0,0,1,26,84.61l-1.64-.1a11.9,11.9,0,0,1-2.5-.73c-1-.83-1.06-4.18-.84-5.47a3.37,3.37,0,0,1,1.34-2.22c0-.23-.13-2-.16-2.55a2.59,2.59,0,0,1,.76-2.5,4.55,4.55,0,0,1,.88-.39s2.63-2.53,2.77-2.79a2,2,0,0,0,.2-.58c0-.09-.14,0-.52-.39-.15-.2-.19-.6,0-.63A77.25,77.25,0,0,1,34.34,65c5.5-.45,9.41-.61,12.24-.61m0-2c-3.19,0-7.36.21-12.41.61a83.75,83.75,0,0,0-8.29,1.31,2.17,2.17,0,0,0-1.6,1.34,2.59,2.59,0,0,0,0,1.76l-1.56,1.53a5.54,5.54,0,0,0-.85.42l0,0,0,0a4.54,4.54,0,0,0-1.63,4.37c0,.18,0,.44.05.72s0,.53.06.82A4.89,4.89,0,0,0,19,78.07h0c-.09.74-.59,5.54,1.57,7.27l.23.19.27.1a13.36,13.36,0,0,0,3.12.88l.44,0a7.64,7.64,0,0,0,13,.62l25,.13a7.59,7.59,0,0,0,6.17,3.13A7.7,7.7,0,0,0,75,87.15l1.94,0a12.78,12.78,0,0,0,3.3-.48,2.92,2.92,0,0,0,2.08-3.21L82.25,83h0c0-.19,0-.57,0-1.2a8.47,8.47,0,0,1,.13-1,5.79,5.79,0,0,0,0-3,7.51,7.51,0,0,0-1.58-2.18l-.14-.15c-.29-.49-.59-.91-.8-1.2l-.12-.18c-1-1.82-4.34-3.32-10.06-4.57a6.87,6.87,0,0,1-1-.32l-.3-.12a118.88,118.88,0,0,0-12.85-5.54h-.07L55,63.38c-1.16-.4-2.92-1-8.4-1Z"/><path class="cls-7" d="M76.89,85.12s-3.24.06-3.64,0-7.4.13-7.4.13l-.72,0L36,85.16l-.86,0L26,84.62l-1.67-.11a11.9,11.9,0,0,1-2.5-.73c-1-.83-1.06-4.18-.84-5.47a3.37,3.37,0,0,1,1.34-2.22c0-.23-.13-2-.16-2.55a2.59,2.59,0,0,1,.76-2.5,4.55,4.55,0,0,1,.88-.39s2.63-2.53,2.77-2.79a2,2,0,0,0,.2-.58c0-.09-.14,0-.52-.39-.15-.2-.19-.6,0-.63A77.25,77.25,0,0,1,34.34,65c17.31-1.4,18.86,0,20.52.46A120.44,120.44,0,0,1,67.51,70.9a11.19,11.19,0,0,0,1.61.57c7.27,1.59,8.56,3.21,8.8,3.64.08.16.56.77,1,1.49a12.55,12.55,0,0,1,1.51,1.91c.29.77-.23,2.33-.22,3.35a7.71,7.71,0,0,0,.14,1.85.91.91,0,0,1-.73,1A9.31,9.31,0,0,1,76.89,85.12Z"/><path class="cls-2" d="M33.88,70.29c2.54.59,9.09,1.35,11.46,1.63l-.51-6.14c-2.72.09-7.81.36-9.59.58Z"/><path class="cls-2" d="M33.2,66.62c-2,.35-4.63.95-4.82,1a.49.49,0,0,0-.3.35l0,.09a.33.33,0,0,0,0,.24.29.29,0,0,0,.17.11l0,0,1,.32.67.21c.47.14,1.05.32,1.58.5.36-.53.79-1.27,1.17-1.92C32.84,67.23,33,66.89,33.2,66.62Z"/><path class="cls-2" d="M58.86,73.39H59c0-.7.07-1.64.09-2v-.11a1,1,0,0,1,.58-.86h.06c.17,0,.51,0,1.42.09s.92,1.21,1,1.65c.41.15,3.5.43,5,.57l.45,0a.14.14,0,0,0,0-.14c-.47-.36-11.36-5.91-15.08-6.55a22,22,0,0,0-5.5-.36l1.18,6.54c4.23.48,10.37,1.13,10.63,1.13Z"/><circle class="cls-7" cx="31.32" cy="82.79" r="5.66"/><circle class="cls-2" cx="31.32" cy="82.79" r="3.98"/><path class="cls-7" d="M32.91,82,29.7,82a.83.83,0,0,0-.93.8.82.82,0,0,0,.94.79l3.21,0a.81.81,0,1,0,0-1.59Z"/><circle class="cls-7" cx="68.72" cy="82.77" r="5.66"/><circle class="cls-2" cx="68.72" cy="82.77" r="3.98"/><path class="cls-7" d="M71.21,82h-1.7v-1.7a.81.81,0,1,0-1.59,0V82h-1.7a.84.84,0,0,0-.93.8.82.82,0,0,0,.94.79h1.7v1.7a.81.81,0,1,0,1.59,0v-1.7h1.7a.81.81,0,1,0,0-1.59Z"/></svg>